<svg xmlns="http://www.w3.org/2000/svg" viewBox="0 0 128 128">
  <rect x="4" y="4" width="120" height="120" rx="20" ry="20" fill="#1e1e1e"/>
  <rect x="16" y="16" width="24" height="24" rx="4" ry="4" fill="#ff5050"/>
  <rect x="44" y="16" width="24" height="24" rx="4" ry="4" fill="#5096ff"/>
  <rect x="72" y="16" width="24" height="24" rx="4" ry="4" fill="#ff9632"/>
  <rect x="44" y="44" width="24" height="24" rx="4" ry="4" fill="#ffdc32"/>
  <rect x="72" y="44" width="24" height="24" rx="4" ry="4" fill="#64dc50"/>
  <rect x="72" y="72" width="24" height="24" rx="4" ry="4" fill="#b464ff"/>
  <rect x="100" y="72" width="24" height="24" rx="4" ry="4" fill="#ff6464"/>
  <rect x="100" y="100" width="24" height="24" rx="4" ry="4" fill="#ff9632"/>
  <rect x="16" y="100" width="24" height="24" rx="4" ry="4" fill="#64dc50"/>
  <rect x="44" y="100" width="24" height="24" rx="4" ry="4" fill="#5096ff"/>
</svg>
